<?xml version="1.0" encoding="UTF-8"?>
<svg id="Layer_1" data-name="Layer 1" xmlns="http://www.w3.org/2000/svg" viewBox="0 0 487 167">
  <defs>
    <style>
      .cls-1 {
        fill: #0045a2;
      }

      .cls-2 {
        fill: transparent;
      }

      .cls-3 {
        fill: #79bbdd;
      }
    </style>
  </defs>
  <path class="cls-2" d="m243.5,166.98c-80.78,0-161.57,0-242.35.02-.94,0-1.15-.21-1.15-1.15C.03,110.95.03,56.05,0,1.15,0,.21.21,0,1.15,0c161.57.02,323.14.02,484.7,0,.94,0,1.15.21,1.15,1.15-.03,54.9-.03,109.8,0,164.7,0,.94-.21,1.15-1.15,1.15-80.78-.03-161.57-.02-242.35-.02ZM42.21,82c10.08,0,20.16,0,30.24,0,1.33,0,2.67,0,4,0,.41,0,.82.04,1.02-.49,1.06-2.78-.04-5.4-2.82-6.42-2.38-.87-4.8-1.62-7.23-2.35-4.33-1.31-8.76-2.28-13.12-3.5-5.88-1.64-11.84-2.98-17.74-4.51-4.1-1.07-8.17-2.28-11.87-4.42-2.18-1.26-4.57-2.29-5.95-4.61-.19-.33-.71-.64-.33-1.07.26-.3.7-.13,1.06-.02.2.06.4.13.59.19,4.42,1.46,8.92,1.86,13.52,1.01.97-.18,1.96-.33,2.97-.35,5.34-.11,10.1,1.74,14.64,4.31,3.6,2.04,6.81,4.63,10.17,7,5.76,4.06,11.78,4.07,17.91,1.15,3.19-1.52,6.3-1.82,9.64-.65,1.85.65,3.48,1.84,5.42,2.2,5.26.99,10.18.51,14.71-2.81,4.31-3.16,8.41-6.66,13.33-8.94,3.83-1.78,7.77-2.64,11.98-2.07,2.68.37,5.33.74,8.06.37,2.59-.35,5.19-.63,7.71-1.37.45-.13.82-.11,1.17.17.3.25.18.55,0,.78-.9,1.07-1.43,2.46-2.73,3.19-1.27.71-2.5,1.52-3.81,2.14-5.02,2.39-10.42,3.68-15.78,4.98-10.45,2.54-20.86,5.21-31.16,8.33-3.09.94-4.92,3.13-5.06,6.09q-.08,1.64,1.57,1.64c22.41,0,44.82,0,67.23,0,.25,0,.5-.01.75,0,.55.03.73-.22.67-.75-.42-3.6-.61-7.22-1.22-10.81-.95-5.6-2.5-11.01-4.7-16.24-2.94-6.98-6.81-13.42-11.61-19.28-3.88-4.73-8.18-9.04-13.1-12.7-3.82-2.84-7.68-5.64-12.01-7.64-3.7-1.71-7.34-3.57-11.3-4.71-3.4-.98-6.83-1.84-10.29-2.55-4.24-.87-8.56-1.21-12.88-1.27-5.48-.08-10.93.46-16.33,1.5-4.29.83-8.53,1.98-12.56,3.6-7.23,2.9-13.95,6.77-20.11,11.58-2.45,1.91-4.67,4.03-6.92,6.14-5.2,4.89-9.25,10.61-12.78,16.75-4.76,8.28-7.71,17.17-9.17,26.58-.43,2.75-.57,5.53-.89,8.3-.17,1.46-.21,1.49,1.22,1.49,11.29,0,22.58,0,33.87,0Zm1.14,4.22s0,.02,0,.03c-9.79,0-19.58,0-29.37,0-2.04,0-4.08,0-6.12,0-.4,0-.86-.12-.84.57.03,1.41-.14,2.85.04,4.24.35,2.75.85,5.49,1.34,8.22.62,3.5,1.59,6.96,2.78,10.27,1.22,3.39,2.69,6.72,4.49,9.91,1.55,2.75,2.91,5.6,4.73,8.21,3.38,4.86,7.12,9.41,11.47,13.45,5.79,5.38,12.23,9.78,19.33,13.22,3.55,1.72,7.25,3.05,10.99,4.3,3.5,1.17,7.09,1.93,10.71,2.53,3.78.64,7.62.81,11.47.81,3.2,0,6.43.12,9.57-.35,4.43-.65,8.82-1.59,13.15-2.86,5.59-1.64,10.88-3.95,16-6.64,4.99-2.62,9.54-5.93,13.74-9.69,6.18-5.53,11.29-11.94,15.47-19.09,1.83-3.13,3.5-6.36,4.86-9.71,1.04-2.57,1.96-5.22,2.69-7.93.87-3.24,1.78-6.46,2.19-9.8.34-2.77.61-5.53.81-8.32.09-1.25-.21-1.41-1.27-1.41-22.24.02-44.49.02-66.73.01-1.21,0-2.4.11-3.58.43-3,.81-6.02,1.32-9.09.33-1.33-.42-2.66-.77-4.07-.77-11.58,0-23.16,0-34.74,0Zm201.82,27.62c-.16-.14-.29-.36-.47-.4-1.84-.39-1.92-1.83-1.95-3.26-.04-1.96-.02-3.91-.02-5.87,0-1.86.84-2.91,2.46-3.1,1.94-.23,3.5.87,3.89,2.49.54,2.28.4,4.58.47,6.88.04,1.27-.27,2.25-1.6,2.64-.32.09-.52.24-.51.58.01.37.32.48.59.54.36.08.75.05,1.11.12,2.44.46,4.84-.5,7.38.07,1.59.36,3.52.05,5.29-.04.54-.03,1-.17,1.45-.82-2.68-.43-2.61-2.34-2.54-4.3.06-1.58.02-3.16.02-4.75,0-.78.08-1.58.45-2.25.56-1.03,2.49-1.67,3.75-1.38,1.08.25,2.15,1.53,2.37,2.73.42,2.27.12,4.56.22,6.83.05,1.12-.12,2.09-1.39,2.51-.34.11-.9.35-.79.79.1.43.61.64,1.09.63,1.85-.02,3.71-.04,5.56-.07.38,0,.71-.19.76-.52.06-.38-.32-.54-.64-.63-1.26-.35-1.63-1.28-1.63-2.46,0-2.37.01-4.75,0-7.12,0-.56.21-1.01.54-1.45.99-1.32,2.46-1.33,3.71-.95,1.16.35,1.84,1.47,2.08,2.8.39,2.1.12,4.21.22,6.32.06,1.27,0,2.46-1.54,2.87-.3.08-.52.3-.44.65.07.32.3.41.64.44,1.93.21,3.85.1,5.78.03.33-.01.65-.23.99-.35-.09-.17-.12-.25-.17-.31-.05-.06-.11-.14-.18-.16-1.82-.46-1.96-1.82-1.9-3.38.09-2.6-.15-5.2-.51-7.78-.21-1.52-1.02-2.7-2.6-3.16-1.91-.55-3.64-.1-5.25.97q-1.65,1.09-2.83-.42c-.31-.39-.63-.78-1.2-.79-2.04-.05-4.12-.17-5.88,1.06-1.15.8-1.31.4-1.24-.71.05-.8-.21-.95-1.02-.68-1.06.36-1.92.99-2.81,1.62-.88.61-.65,1.07.04,1.6.63.49.89,1.13.88,1.93-.03,1.54-.05,3.08,0,4.62.05,1.25-.15,2.46-.55,3.62-.47,1.35-2.06,1.88-3.36,1.26-1.04-.5-1.41-1.26-1.42-2.39,0-2.9.23-5.82-.43-8.69-.55-2.41-2.63-3.61-5.05-3.11-1.21.25-2.27.75-3.31,1.36-.78.45-1.46.73-2.04-.32-.29-.52-.89-.75-1.44-.92-2.15-.67-4.08-.05-5.91,1.08-1.08.67-1.24.6-1.31-.64-.05-1.05-.47-1.28-1.47-.79-.86.43-1.7.91-2.55,1.36-.66.35-.88.77-.17,1.27,1.17.81,1.29,1.98,1.26,3.26-.04,1.67.02,3.33-.02,5-.03,1.52.04,3.12-1.98,3.59-.16.04-.64.2-.49.57.09.22.32.37.67.4,2.1.18,4.19.08,6.28-.01.31-.01.76,0,.82-.41.06-.38-.34-.57-.63-.67-1-.34-1.45-1.04-1.45-2.07,0-2.58-.01-5.16,0-7.75,0-.69.22-1.32.77-1.78,1.83-1.52,5.05-.41,5.52,1.9.51,2.51.09,5.05.26,7.57.07,1.12-.19,1.87-1.44,2.01-.35.04-.82.18-.78.66.04.51.47.59.93.59,1.79,0,3.58.02,5.37.03.53,0,.95-.19,1.29-.64Zm-49.14-46.38c0-2.83.05-5.67-.02-8.5-.03-1.11.37-1.46,1.43-1.46,2,0,3.96.28,5.94.44,1.33.11,1.79.55,1.79,1.72.02,5.54.29,11.07-.2,16.6-.11,1.25-.24,2.6-1.93,2.91-.32.06-.77.44-.67.79.14.54.81.64,1.23.64,1.91.03,3.82-.06,5.72-.1.46,0,.91-.13,1.01-.57.1-.42-.33-.61-.69-.74-1.02-.38-1.32-1.19-1.32-2.17-.01-2.37-.01-4.75-.02-7.12,0-.8.33-1.41.97-1.9,1.22-.91,2.57-1.03,3.89-.46,1.32.57,2,1.72,2.03,3.17.04,2.08,0,4.17.05,6.25.03,1.03-.27,1.78-1.27,2.18-.34.14-.77.29-.68.76.07.42.49.58.85.58,1.91.02,3.83.03,5.75-.01.34,0,.8-.14.84-.59.03-.41-.4-.51-.69-.61-.73-.27-1.42-.53-1.47-1.46-.17-2.81-.42-5.61-.49-8.42-.06-2.46-1.83-4.3-4.27-4.42-1.72-.08-3.2.47-4.59,1.34-.82.52-.95.33-.94-.53.05-3.4-.05-6.81.27-10.21.12-1.24-.12-1.4-1.3-.79-1.37.7-2.85.93-4.34.95-4.75.05-9.5,0-14.25.05-1.58.02-3.06-.12-4.28-1.26-.43-.4-.97-.31-1.05.27-.24,1.7-.74,3.36-.7,5.09,0,.39-.32.95.39,1.1.58.12.74-.46,1.09-.7.11-.08.12-.29.2-.43.86-1.45,1.99-2.42,3.81-2.3.79.05,1.58,0,2.37,0q2.01,0,2,1.94c-.01,4.62-.02,9.25-.04,13.87,0,1.16-.12,2.31-.32,3.46-.19,1.1-.85,1.64-1.69,2.12-.29.16-.59.3-.89.43-.34.15-.77.27-.71.74.08.61.63.46,1,.46,1.67.02,3.33,0,5-.01,1.33-.01,2.67-.03,4-.07.32,0,.74-.11.82-.43.11-.41-.34-.5-.62-.65-.14-.08-.31-.12-.46-.18-2.22-.79-2.54-1.23-2.54-3.64,0-2.71,0-5.41,0-8.12Zm237.77,13.06c1.62,0,3.25.09,4.87-.02,2.88-.2,5.51-1.16,7.23-3.6,2.34-3.33,1.19-7.45-2.58-9.65-.73-.42-.99-.65-.16-1.21,2.18-1.48,2.46-3.73,1.99-6-.46-2.2-2.03-3.57-4.27-4.07-1.87-.41-3.72-.56-5.66-.3-2.09.28-4.24.08-6.36.13-.43,0-1.02,0-1.09.59-.06.57.46.72.91.84q2.19.61,2.32,2.83c.02.29.07.58.09.87.39,5.23-.28,10.45-.21,15.68,0,.04-.02.08-.03.12-.3,1.59-.68,1.98-2.32,2.23-.55.08-1.24.08-1.2.77.04.71.75.78,1.35.78,1.71,0,3.41,0,5.12,0Zm-170.96-6.56c-.47-.45-.88-.79-1.23-1.18-3.54-4.02-7.11-8.02-10.61-12.08-4.87-5.66-3.23-4.88-8.85-4.95-.08,0-.17,0-.25,0-.63.02-1.58.08-1.63.59-.07.71.81.81,1.47.97,1.79.42,2.4,1.4,2.52,3.25.13,2.02.22,4.01.01,6.05-.32,3.08-.36,6.19-.54,9.28-.09,1.58-.51,2.92-2.4,3.18-.43.06-.82.33-.8.81.03.64.57.62,1.03.62,2.17.01,4.33.03,6.5.02.43,0,1.06.1,1.11-.51.04-.51-.52-.75-.94-.86-1.8-.47-2.24-1.72-2.21-3.4.06-4.49-.08-8.98.26-13.46.03-.34-.24-.83.28-.95.43-.1.61.36.83.65,1.74,2.31,3.67,4.46,5.58,6.63,1.31,1.48,2.66,2.93,3.94,4.44,1.96,2.32,3.88,4.68,5.81,7.03.38.45.83.99,1.44.76.62-.24.37-.95.36-1.46-.13-6.58.11-13.14.51-19.7.07-1.11.56-1.89,1.61-2.3.27-.1.54-.21.81-.32.41-.16.81-.42.67-.9-.12-.43-.59-.37-.97-.38-2.08,0-4.16-.03-6.25-.02-.54,0-1.23-.02-1.35.6-.12.6.58.73,1.02.92,1.11.49,2.03,1.05,2.16,2.46.42,4.68.66,9.35.11,14.24Zm66.53-9.25c-.51-.07-1.28.08-2.04.32-2.54.8-5.1,3.4-4.11,6.76.38,1.29,1.16,2.26,2.09,3.15.47.45.57.79-.13,1.09-.3.13-.56.34-.83.53-1.48,1.05-1.49,3.03-.02,4.12q1.34,1,.03,2.07c-.22.18-.41.42-.64.59-1.8,1.36-1.93,3.63-.44,5.34,2.22,2.56,5.1,2.45,7.95,1.89,3.31-.65,5.49-2.78,6.51-6.03.52-1.64.1-3.46-1.17-4.42-1.07-.8-2.27-1.38-3.66-1.39-1.17,0-2.33.01-3.5-.02-.93-.02-1.8-.24-2.5-.91-.41-.39-.5-.83-.26-1.35.22-.48.56-.47,1.03-.39.43.08.89.01,1.33-.05,3.53-.52,6.46-1.92,6.28-6.55-.07-1.78-.01-1.78,1.83-1.97.24-.02.48-.1.71-.19.45-.17.65-.55.62-.98-.04-.53-.48-.58-.93-.6-.62-.03-1.24-.08-1.85-.1-2.04-.09-3.96-.87-6.29-.91Zm-131.72,50.21c1.29.18,2.74.02,4.14-.26,1.43-.29,3.05-.43,3.92-1.86.53-.87.9-1.85,1.21-2.82.2-.61.78-1.5-.01-1.87-.62-.29-.94.67-1.31,1.15-2.91,3.82-7.21,5.52-12,2.88-3.89-2.14-5.63-5.46-5.82-9.74-.09-2.04.08-4.05,1.01-5.91,1.92-3.88,4.9-6.04,9.39-5.8,1.83.1,3.39.76,4.84,1.84,1.13.84,1.48,2.12,2.12,3.24.16.29.29.7.67.63.42-.07.38-.52.49-.87.47-1.39-.15-2.69-.23-4.02-.05-.8-.66-1.08-1.36-1.22-3.22-.64-6.4-1.42-9.74-.79-2.7.51-5.27,1.33-7.23,3.25-2.91,2.85-4.42,6.26-3.98,10.54.35,3.39,1.62,6.27,4.16,8.32,2.71,2.19,5.9,3.59,9.73,3.32Zm154.6-7.56s-.02,0-.03,0c0-1.25,0-2.5,0-3.75,0-.55.03-1.12.46-1.51,1.19-1.07,2.57-1.07,4.03-.67,1.23.34,2.09,1.05,2.32,2.32.17.92.22,1.87.23,2.81.01,1.43-.18,2.86-.32,4.28-.11,1.16-.28,1.88-1.28,2.42-.26.14-.64.37-.58.74.1.58.84.63,1.09.59,1.9-.28,3.81.02,5.7-.15.32-.03.58-.13.67-.44.08-.28-.15-.5-.35-.6-1.91-1-1.97-2.77-1.98-4.58-.01-1.95.11-3.9-.24-5.84-.28-1.54-.9-2.81-2.4-3.51-2.28-1.06-4.32-.24-6.23.93-1,.61-1.26.38-1.11-.66.14-1.03-.47-1.17-1.18-.95-.96.3-1.87.73-2.8,1.13-.68.29-.67.68-.29,1.31.47.79,1.29,1.45,1.29,2.48,0,2.25-.02,4.5-.07,6.75-.02,1.3-.34,2.44-1.84,2.79-.36.09-.62.3-.53.7.06.31.3.49.63.49,1.97,0,3.94,0,5.91-.03.36,0,.79-.19.81-.64.02-.37-.34-.6-.65-.66-1.08-.21-1.22-1.03-1.25-1.88-.04-1.29,0-2.58,0-3.87Zm6.8-40.47c0-.53,0-.86,0-1.19-.04-1.22-.32-1.41-1.44-.92-.79.34-1.56.73-2.36,1.05-.84.34-.95.84-.42,1.52.93,1.2,1.2,2.58,1.16,4.06-.03,1.17.1,2.34-.03,3.49-.19,1.61.06,3.48-1.97,4.31-.26.1-.5.48-.42.84.1.39.47.41.81.41.75.01,1.5.05,2.25.05,1.08,0,2.17.03,3.25-.05.41-.03.98-.17,1.04-.72.05-.47-.46-.53-.78-.68-.79-.38-1.16-.95-1.14-1.87.05-2.54.01-5.08.02-7.62,0-.37-.06-.75.15-1.09.53-.85,2.44-1.49,3.61-1.2,1.91.47,2.83,1.38,2.99,2.8.2,1.77.21,3.55.21,5.33,0,1.56-.06,3.08-1.78,3.87-.2.09-.36.46-.39.72-.04.26.24.46.49.47,2.12.05,4.25.21,6.36-.02.57-.06,1.1-.6.32-1.08-1.86-1.13-1.92-2.93-1.96-4.76-.03-1.54.03-3.08-.02-4.62-.13-4.07-3.69-6.19-7.36-4.4-.81.4-1.62.81-2.59,1.3Zm-141.84,47.78c4.22.6,8.24-3.91,8.1-8.44-.13-4.11-4.01-7.53-8.05-7.25-4.93.34-7.81,3.41-7.9,7.61-.09,4.18,2.98,7.96,7.85,8.08Zm119.04,0c4.26.34,8.08-2.95,8.16-8.01.07-4.42-2.83-7.36-7.12-7.64-5.24-.33-8.7,3.45-8.73,7.15-.04,4.87,3.3,8.5,7.68,8.5Zm135.08-38.87c-.67-.4-.79-.92-.97-1.37-.81-2.05-1.55-4.12-2.37-6.16-.32-.8-.27-1.34.59-1.71.35-.15.87-.35.7-.86-.14-.45-.64-.47-1.07-.47-1.66,0-3.33,0-4.99,0-.38,0-.83-.04-.96.39-.16.52.33.78.68.91,1.11.39,1.56,1.3,1.98,2.26,1.02,2.37,1.99,4.75,3.06,7.09,1.18,2.61,1.69,5.19.12,7.83-.2.34-.24.78-.4,1.16-.44,1.1-1.04,1.99-2.44,1.83-.23-.03-.65.02-.69.13-.23.63-1.15,1.01-.82,1.81.3.73.83,1.41,1.64,1.54.71.12,1.4-.08,1.92-.8,1.09-1.5,1.36-3.33,2.09-4.98,1.72-3.88,3.03-7.95,4.72-11.85,1-2.32,1.62-4.95,3.97-6.47.14-.09.28-.46.22-.53-.22-.25-.53-.37-.88-.36-1.37.01-2.75.01-4.12.02-.42,0-.91,0-1.04.48-.14.53.35.74.72.86.98.31,1.19,1.03.93,1.84-.8,2.44-1.69,4.84-2.59,7.38Zm-125.46-10.83c-2.07-.09-3.55.81-4.88,1.93-.7.6-1.58,1.13-1.88,2.09-.14.44-.4,1.01.33,1.22.81.23,3.04-1.17,3.04-1.96,0-1.07.51-1.33,1.48-1.27.63.04,1,.43,1.48.64,1.67.74,1.45,2.22,1.46,3.49,0,1.22-1.19,1.51-2.16,1.9-1.3.52-2.72.7-3.95,1.44-1.46.88-1.98,2.41-1.36,4.18.62,1.77,1.55,2.4,3.4,2.08.93-.16,1.89-.43,2.65-1.01.81-.63,1.38-.43,2.05.17,1.48,1.36,3.76,1.08,4.93-.6.23-.34.79-.72.42-1.18-.25-.32-.78-.14-1.19-.07-1.45.27-1.87-.01-1.93-1.41-.11-2.61,0-5.22-.21-7.83-.19-2.46-1.38-3.82-3.68-3.82Zm-27.6,7.72h0c0-1.29.04-2.58,0-3.87-.08-2.25-1.77-3.86-4-3.86-2.35,0-4.03,1.36-5.63,2.84-.39.36-.65.85-.95,1.3-.19.3-.21.63.03.93.24.3.51.11.79.07,1.42-.21,2.35-1.01,2.71-2.36.15-.56.41-.72.94-.75,1.38-.08,2.76.79,3.05,1.97.53,2.15,0,3.3-1.65,4.02-1.37.6-2.93.52-4.22,1.43-1.25.88-1.93,2.31-1.56,3.85.38,1.58,1.23,2.48,2.64,2.52,1.19.03,2.3-.47,3.38-.96.92-.42,1.83-.97,2.44.44.09.21.46.35.73.43,1.7.48,3.68-.47,4.53-2.05.27-.49.04-.61-.31-.66-.32-.05-.67-.02-.99.03-1.6.26-1.85.08-1.9-1.58-.04-1.25,0-2.49,0-3.74Zm135.95-5.66c.96-.25,1.54.31,2.16.92.85.84.48,1.87.6,2.83.13,1.11-.4,1.72-1.39,2.05-1.1.37-2.19.82-3.31,1.09-1.73.41-2.55,1.6-2.99,3.17-.49,1.8,1.58,3.99,3.38,3.57,1.08-.25,2.15-.5,3.16-1.04.61-.33,1.48-.45,1.86.53.14.37.48.49.78.53,1.66.25,3.14-.14,4.32-1.39.31-.33.63-.74.33-1.22-.31-.49-.74-.16-1.12-.06-1.4.4-2,.01-1.99-1.43.02-2.28.07-4.58.05-6.85-.03-3.24-2.01-5.42-5.22-4.64-1.76.42-3.29,1.38-4.57,2.7-.45.46-.75,1-.98,1.58-.17.44,0,.72.46.83.84.19,2.89-1.04,2.91-1.88.03-1.12.48-1.52,1.55-1.28Zm-175.45,5.52s.01,0,.02,0c0-1.25.02-2.5,0-3.74-.04-1.81-1.44-3.57-3.01-3.84-2.17-.37-6.14,1.57-7.16,3.51-.17.32-.28.69-.35,1.06-.07.35.14.53.49.58.89.13,2.69-1.09,2.78-1.99.1-.94.64-1.24,1.48-1.3.53-.03.97.14,1.42.38,1.73.93,1.61,2.56,1.55,4.16-.04,1.32-1.22,1.31-2.05,1.63-1.01.39-2.07.62-3.08,1-2.67,1.02-2.95,3.14-2.33,4.86.32.87,2.04,2.31,2.59,2.05,1.2-.56,2.63-.5,3.69-1.39.49-.41.92-.42,1.42.05,2.21,2.08,3.05,1.51,5.19-.13.41-.31.78-.75.56-1.28-.3-.7-.89-.22-1.31-.14-1.36.24-1.79.01-1.86-1.35-.08-1.37-.02-2.74-.02-4.12Zm-50.29-2.05h0c1,0,2,.02,2.99,0,.69,0,1.53.18,1.9-.59.38-.79.21-1.62-.26-2.37-1.66-2.67-3.01-2.7-6.4-2.18-4.8.74-6.63,5.68-5.48,10.24.91,3.6,3.48,5.23,7.21,5.15,2.36-.05,3.95-1.23,5.02-3.22.15-.28.53-.72.03-.96-.35-.17-.84-.36-1.16.24-.45.86-1.4,1.03-2.19,1.12-4.3.5-6.14-3.11-6.37-6.43-.05-.69.29-1.04,1.07-1.01,1.2.05,2.41.01,3.62.01Zm163.82-.04s0,.02,0,.03c1.25,0,2.5.01,3.74,0,.79-.01,1.19-.4,1.23-1.24.06-1.59-1.24-3.4-2.92-3.94-2.4-.78-6.01.28-7.65,2.21-2.11,2.48-2.41,5.32-1.6,8.32,1.33,4.98,6.34,5.93,9.89,4.1,1.01-.52,1.94-1.31,2.25-2.53.07-.29.18-.7-.2-.88-.3-.15-.56.07-.76.29-.42.47-.86.93-1.48,1.1-3.53.94-7.52-2.38-7.28-6.03.07-.98.44-1.53,1.55-1.44,1.08.08,2.16.02,3.24.02Zm8.65,4.88c.09,1.08-.14,2.09.27,3.03,1.13,2.61,5.35,3.28,7.47,1.17.42-.42,1.08-.94.75-1.57-.37-.71-1.05-.08-1.54.04-2.53.58-3.8-.39-3.89-2.99-.08-2.12.2-4.23.29-6.34.03-.76.4-.98,1.13-.94.99.05,1.99.02,2.99,0,.97-.02,1.09-.72,1.14-1.47.06-.85-.42-1.08-1.16-1.06-.91.02-1.83-.04-2.74.04-.94.08-1.46-.08-1.45-1.22,0-1.19-.51-1.37-1.48-.58-.97.78-1.85,1.68-2.82,2.46-.84.68-.94,1.2.11,1.71.94.45,1.28,1.19,1.2,2.23-.14,1.86-.18,3.73-.26,5.5Zm-103.6,39.3v.03c.5,0,1,.04,1.5,0,3.13-.27,4.98-3.13,4.33-5.66-.39-1.53-1.53-2.55-2.91-3.2-1.23-.58-2.16-1.48-3.06-2.43-.55-.58-.69-1.3-.2-2.04.42-.64.86-1.19,1.76-1.16,1.15.03,1.88.58,2.45,1.53.35.59.56,1.67,1.31,1.49.93-.22.31-1.28.44-1.96.2-1.02-.24-1.56-1.25-1.92-1.48-.52-2.98-.42-4.43-.24-1.4.17-2.72,1.05-2.89,2.54-.18,1.54-.47,3.19,1.01,4.57,1.22,1.14,2.73,1.88,3.88,3.09,1.04,1.11,1.18,2.69.21,3.6-1.13,1.07-2.68.87-3.74-.52-.4-.52-.74-1.09-1.14-1.61-.19-.25-.41-.58-.81-.46-.48.14-.29.57-.25.84.4,2.75.24,3.37,3.18,3.51.21,0,.42,0,.62,0Zm9.16-3.14c.09,1.1,0,2.4,1.34,2.83,1.8.57,3.65.89,5.46-.08,1.55-.83,2.7-1.99,2.88-3.79.17-1.71-.55-3.04-2.04-3.96-1.19-.74-2.35-1.54-3.5-2.34-.84-.58-1.12-1.49-.88-2.4.18-.7.74-1.38,1.49-1.53.9-.17,1.77-.02,2.29.98.32.61.86,1.1,1.28,1.65.51.65.89.22,1.08-.22.51-1.18-.41-2.93-1.63-3.4-1.38-.53-2.73-.48-4.11-.08-1.66.48-2.85,1.49-3.11,3.23-.28,1.82.46,3.26,1.99,4.33,1.19.84,2.38,1.7,3.41,2.74.86.88.8,2.44-.11,3.46-.74.82-2.24.83-3.13-.04-.53-.52-.97-1.13-1.42-1.72-.3-.38-.49-1.03-1.08-.81-.4.15-.1.74-.2,1.16Zm111.22-30.76c1-.02,2.46-.27,3.5-1.54.31-.38.95-.85.57-1.36-.34-.45-.92.06-1.38.17-2.42.59-4.05-.18-3.93-2.82.09-2.03.09-4.08.02-6.11-.04-1.07.37-1.39,1.37-1.34.95.05,1.92.03,2.86-.09.68-.09,1.28-.46,1.25-1.3-.03-.9-.7-1.05-1.4-1.09-.87-.05-1.75-.08-2.62-.02-1,.07-1.64-.14-1.49-1.33.04-.33,0-.69-.37-.86-.37-.17-.63.09-.89.3-1.05.88-2.08,1.78-3.15,2.64-.77.62-.66,1.13.18,1.45,1.12.42,1.26,1.2,1.23,2.26-.07,2.49-.09,4.99,0,7.48.08,2.33,1.4,3.52,4.25,3.55Zm-39.06-15.83c-1.7-.12-3.33.34-4.53,1.42-1.63,1.46-1.11,5.06.72,6.32,1.18.81,2.39,1.57,3.55,2.41.69.51,1.13,1.25.97,2.14-.18.99-.57,1.96-1.67,2.23-.94.23-1.82-.08-2.46-.85-.39-.47-.72-.99-1.09-1.48-.32-.42-.6-1.16-1.14-1-.57.18-.23.94-.29,1.44-.03.25.03.5.02.75-.06,1.29.65,2.09,1.79,2.32,1.74.35,3.5.44,5.18-.39,1.85-.91,3.08-2.91,2.75-4.75-.29-1.63-1.34-2.72-2.72-3.55-1.14-.69-2.35-1.27-3.26-2.28-.76-.84-.69-2.36.11-3.1.81-.75,1.84-.67,2.79.19.66.6,1.04,1.4,1.58,2.08.21.27.51.52.85.38.35-.14.36-.5.29-.86-.07-.41-.13-.83-.11-1.24.05-1.23-.45-1.95-1.74-2.02-.54-.03-1.07-.1-1.61-.15Zm-75.01,15.19c-.39-.61-.92-.82-1.51-.9-1.05-.15-1.55-.7-1.7-1.78-.4-2.78-.1-5.57-.19-8.35-.04-1.11,1.02-.97,1.75-1.06.3-.04.64.12.95.22,1.69.57,2.11.47,2.98-.97.3-.49.89-.99.33-1.67-.54-.65-1.21-1.04-2.08-.82-.93.24-1.8.62-2.61,1.15-.46.3-.79,1.17-1.37.84-.47-.26-.18-1.08-.17-1.64.01-.91-.4-.88-.98-.52-.93.56-1.91,1-2.93,1.36-.78.28-1.06.74-.32,1.44.54.5,1.09,1.05,1.19,1.83.29,2.39.28,4.8.17,7.2-.05,1.22-.29,2.4-1.75,2.83-.3.09-.73.37-.59.82.11.37.51.37.85.37,1.91,0,3.83.03,5.74.01.74,0,1.51.15,2.24-.38Zm-16.38-6.57c0-1.33,0-2.28,0-3.24.02-2.09.76-2.62,2.77-2.02,1.85.55,1.89.49,2.98-1.08.48-.7.36-1.38.04-1.93-.31-.54-1.06-.68-1.69-.5-1.16.33-2.29.76-3.28,1.48-.28.2-.47.71-.86.49-.43-.24-.12-.64-.02-1,.11-.43,0-.87-.32-1.15-.4-.36-.75,0-1.12.18-.82.4-1.65.78-2.47,1.17-1,.48-1.11.88-.32,1.64.72.7,1.2,1.5,1.21,2.51.02,2.12.06,4.24-.03,6.36-.05,1.12-.05,2.38-1.53,2.82-.27.08-.8.18-.7.71.11.55.58.51.99.51,2.16,0,4.32,0,6.49-.02.43,0,1.08.17,1.18-.38.1-.55-.6-.55-.96-.76-.14-.08-.32-.09-.48-.12-.94-.2-1.47-.7-1.71-1.7-.35-1.45-.04-2.89-.16-3.96Zm4.56,40.47c-.36-.53-.84-.84-1.34-.94-.87-.19-1.12-.8-1.21-1.52-.07-.57-.06-1.16-.06-1.74,0-3.41-.02-6.81,0-10.22,0-.65-.22-1.04-.84-.74-1.11.56-2.29.9-3.45,1.3-.47.16-.8.58-.38.91,1.31,1.04,1.51,2.47,1.62,3.95.14,1.99.13,3.97-.04,5.96-.12,1.36-1.4,1.65-2.13,2.43-.2.21-.62.42-.47.72.11.23.49.34.86.33,2.08-.03,4.15-.02,6.23,0,.44,0,.81-.12,1.22-.43Zm35.36-.03c-.69-.24-.95-.65-1.48-.77-.96-.21-1.47-.93-1.46-1.89.02-3.81-.3-7.62.17-11.42.11-.89-.32-1.32-1.12-1.04-1.15.4-2.28.84-3.4,1.3-.55.22-.81.48-.2,1.07.53.52,1.28.99,1.31,1.86.1,2.48.31,4.95.24,7.43-.04,1.34-.7,2.19-1.82,2.72-.41.19-.84.44-.79.8.06.43.75.52,1.03.48,2.4-.32,4.86.37,7.52-.55Zm-4.48-19.04c1.1,0,1.91-.82,1.92-1.94.01-.96-.84-1.77-1.84-1.74-1.2.03-2.02.8-1.97,1.86.05,1.08.82,1.82,1.89,1.82Zm-33.27-1.79c0-1.24-.57-1.86-1.73-1.87-.99,0-1.98.93-1.95,1.84.03,1,.87,1.81,1.9,1.82,1.27.02,1.77-.49,1.78-1.79Z"/>
  <path class="cls-3" d="m42.21,82c-11.29,0-22.58,0-33.87,0-1.44,0-1.39-.04-1.22-1.49.32-2.76.46-5.54.89-8.3,1.46-9.41,4.42-18.3,9.17-26.58,3.53-6.15,7.59-11.87,12.78-16.75,2.25-2.12,4.48-4.24,6.92-6.14,6.17-4.81,12.89-8.67,20.11-11.58,4.03-1.62,8.27-2.77,12.56-3.6,5.39-1.04,10.85-1.58,16.33-1.5,4.31.06,8.63.41,12.88,1.27,3.46.71,6.88,1.57,10.29,2.55,3.96,1.14,7.6,3,11.3,4.71,4.34,2,8.19,4.8,12.01,7.64,4.92,3.66,9.22,7.97,13.1,12.7,4.8,5.86,8.67,12.3,11.61,19.28,2.2,5.23,3.75,10.64,4.7,16.24.61,3.59.79,7.21,1.22,10.81.06.54-.11.79-.67.75-.25-.02-.5,0-.75,0-22.41,0-44.82,0-67.23,0q-1.65,0-1.57-1.64c.14-2.96,1.98-5.15,5.06-6.09,10.29-3.12,20.7-5.79,31.16-8.33,5.35-1.3,10.75-2.6,15.78-4.98,1.31-.62,2.54-1.43,3.81-2.14,1.3-.73,1.83-2.12,2.73-3.19.19-.23.3-.53,0-.78-.35-.29-.72-.31-1.17-.17-2.52.74-5.12,1.02-7.71,1.37-2.73.37-5.38,0-8.06-.37-4.21-.58-8.14.29-11.98,2.07-4.93,2.28-9.02,5.78-13.33,8.94-4.52,3.32-9.45,3.8-14.71,2.81-1.94-.37-3.57-1.56-5.42-2.2-3.34-1.17-6.45-.87-9.64.65-6.13,2.92-12.15,2.91-17.91-1.15-3.36-2.37-6.58-4.97-10.17-7-4.55-2.57-9.3-4.42-14.64-4.31-1.01.02-1.99.17-2.97.35-4.6.85-9.1.45-13.52-1.01-.2-.07-.4-.13-.59-.19-.36-.12-.8-.28-1.06.02-.38.43.14.74.33,1.07,1.37,2.31,3.77,3.35,5.95,4.61,3.69,2.14,7.76,3.35,11.87,4.42,5.91,1.53,11.86,2.87,17.74,4.51,4.36,1.21,8.78,2.19,13.12,3.5,2.43.73,4.85,1.49,7.23,2.35,2.78,1.01,3.88,3.64,2.82,6.42-.2.53-.61.48-1.02.49-1.33,0-2.67,0-4,0-10.08,0-20.16,0-30.24,0Z"/>
  <path class="cls-1" d="m43.35,86.23c11.58,0,23.16,0,34.74,0,1.41,0,2.75.35,4.07.77,3.07.98,6.09.48,9.09-.33,1.18-.32,2.36-.43,3.58-.43,22.24,0,44.49,0,66.73-.01,1.06,0,1.36.16,1.27,1.41-.2,2.78-.46,5.55-.81,8.32-.41,3.34-1.32,6.56-2.19,9.8-.73,2.71-1.65,5.36-2.69,7.93-1.36,3.35-3.03,6.58-4.86,9.71-4.18,7.15-9.28,13.56-15.47,19.09-4.2,3.76-8.76,7.06-13.74,9.69-5.12,2.69-10.41,5-16,6.64-4.33,1.27-8.72,2.21-13.15,2.86-3.14.46-6.37.35-9.57.35-3.85,0-7.69-.18-11.47-.81-3.61-.61-7.21-1.37-10.71-2.53-3.74-1.25-7.44-2.58-10.99-4.3-7.1-3.44-13.54-7.84-19.33-13.22-4.35-4.04-8.08-8.58-11.47-13.45-1.82-2.61-3.18-5.46-4.73-8.21-1.8-3.19-3.27-6.53-4.49-9.91-1.19-3.31-2.15-6.77-2.78-10.27-.49-2.73-.99-5.47-1.34-8.22-.18-1.39-.01-2.83-.04-4.24-.01-.69.44-.57.84-.57,2.04,0,4.08,0,6.12,0,9.79,0,19.58,0,29.37,0,0,0,0-.02,0-.03Zm62.9,46.84c.24.19.5.2.78.08.24,0,.48.02.73.03.09,0,.18,0,.27.01.41-.01.82-.02,1.23-.04.35.11.68.06.99-.14,5.19-.28,10.09-1.58,14.49-4.42,1.4-.9,2.92-1.27,4.49-1.33,4.05-.15,7.9-1.16,11.77-2.25,2.23-.63,4.26-1.69,6.37-2.57.35-.15.9-.21.87-.76-.03-.67-.6-.38-.96-.46-.36-.08-.71-.2-1.07-.26-4.19-.75-8.31-1.73-12.12-3.72-1.98-1.03-3.54-2.64-5.41-3.82-1.55-.98-1.56-1.05-2.72.4-4.17,5.21-9.73,7.87-16.18,8.98-.1.02-.2.03-.3.05-.97.12-1.95.09-2.92,0-.29-.18-.56-.27-.8.07-.52-.36-1.16-.07-1.67-.24-3.17-1.06-6.49-1.65-9.35-3.64-3.3-2.29-6.16-4.91-8.09-8.47-.45-.84-.94-.88-1.46-.09-.56.86-.98,1.83-1.6,2.64-4.81,6.28-11.2,9.54-19.1,9.83-1.73.06-3.45-.22-5.12-.54-1.84-.35-3.77-.86-5.35-1.8-2.88-1.72-5.67-3.61-7.81-6.34-1.15-1.47-1.94-1.39-3.51-.33-3.27,2.21-6.71,4.08-10.43,5.43-2.33.85-4.77,1.14-7.18,1.61-.24.05-.54-.01-.65.25-.18.4.25.48.45.61.62.42,1.27.79,1.93,1.14,2.91,1.51,6.07,2.29,9.18,3.25,2.39.73,4.9.3,7.32.72,1.5.26,3,.45,4.23,1.47,3.85,3.2,8.55,3.97,13.28,4.47,2.41.25,4.87.12,7.31-.12,2.47-.24,4.86-.76,7.19-1.51,3.1-.99,5.93-2.55,8.63-4.36,1.34-.9,2.62-.97,4.01-.04,1.45.97,2.78,2.1,4.36,2.89,4.39,2.19,9.05,3.18,13.92,3.3Z"/>
  <path class="cls-1" d="m245.16,113.85c-.34.45-.76.65-1.29.64-1.79-.02-3.58-.03-5.37-.03-.46,0-.88-.07-.93-.59-.04-.47.43-.62.78-.66,1.25-.15,1.52-.89,1.44-2.01-.17-2.52.25-5.06-.26-7.57-.47-2.31-3.69-3.43-5.52-1.9-.54.45-.77,1.08-.77,1.78,0,2.58,0,5.16,0,7.75,0,1.03.44,1.73,1.45,2.07.29.1.69.28.63.67-.06.41-.51.4-.82.41-2.09.09-4.19.19-6.28.01-.35-.03-.59-.18-.67-.4-.15-.37.33-.54.49-.57,2.01-.47,1.95-2.07,1.98-3.59.03-1.67-.02-3.33.02-5,.03-1.28-.09-2.44-1.26-3.26-.71-.49-.49-.92.17-1.27.85-.45,1.69-.93,2.55-1.36,1-.5,1.41-.26,1.47.79.06,1.23.23,1.31,1.31.64,1.82-1.13,3.76-1.75,5.91-1.08.55.17,1.15.39,1.44.92.57,1.04,1.26.77,2.04.32,1.04-.6,2.1-1.11,3.31-1.36,2.42-.49,4.49.71,5.05,3.11.66,2.87.42,5.79.43,8.69,0,1.12.38,1.89,1.42,2.39,1.29.62,2.89.09,3.36-1.26.4-1.16.6-2.37.55-3.62-.06-1.54-.04-3.08,0-4.62.02-.81-.25-1.45-.88-1.93-.68-.53-.91-.99-.04-1.6.89-.62,1.74-1.25,2.81-1.62.81-.28,1.07-.13,1.02.68-.07,1.11.09,1.51,1.24.71,1.76-1.23,3.85-1.11,5.88-1.06.56.01.89.4,1.2.79q1.18,1.51,2.83.42c1.61-1.06,3.34-1.52,5.25-.97,1.58.46,2.39,1.64,2.6,3.16.35,2.58.59,5.17.51,7.78-.05,1.56.09,2.91,1.9,3.38.07.02.13.1.18.16.05.06.08.14.17.31-.34.12-.66.34-.99.35-1.93.07-3.85.17-5.78-.03-.34-.04-.57-.12-.64-.44-.08-.35.14-.57.44-.65,1.53-.42,1.61-1.6,1.54-2.87-.11-2.1.17-4.21-.22-6.32-.25-1.33-.93-2.45-2.08-2.8-1.25-.38-2.73-.36-3.71.95-.33.44-.54.89-.54,1.45.01,2.37,0,4.75,0,7.12,0,1.18.37,2.11,1.63,2.46.32.09.7.25.64.63-.05.33-.39.51-.76.52-1.85.02-3.71.05-5.56.07-.48,0-.99-.2-1.09-.63-.11-.45.45-.68.79-.79,1.27-.42,1.44-1.39,1.39-2.51-.1-2.28.2-4.56-.22-6.83-.22-1.19-1.29-2.48-2.37-2.73-1.26-.29-3.19.35-3.75,1.38-.36.67-.45,1.47-.45,2.25,0,1.58.04,3.17-.02,4.75-.07,1.96-.13,3.87,2.54,4.3-.45.64-.91.79-1.45.82-1.77.09-3.7.4-5.29.04-2.54-.57-4.94.39-7.38-.07-.37-.07-.75-.04-1.11-.12-.27-.06-.58-.17-.59-.54-.01-.35.2-.49.51-.58,1.33-.39,1.64-1.37,1.6-2.64-.07-2.3.07-4.6-.47-6.88-.38-1.63-1.95-2.72-3.89-2.49-1.62.19-2.47,1.25-2.46,3.1,0,1.96-.02,3.92.02,5.87.03,1.43.11,2.88,1.95,3.26.17.04.31.26.47.4Z"/>
  <path class="cls-3" d="m196.02,67.47c0,2.71,0,5.41,0,8.12,0,2.41.32,2.85,2.54,3.64.16.06.32.1.46.18.28.16.73.24.62.65-.09.31-.5.42-.82.43-1.33.04-2.67.05-4,.07-1.67.01-3.33.04-5,.01-.36,0-.92.15-1-.46-.06-.47.37-.59.71-.74.3-.14.6-.27.89-.43.84-.48,1.5-1.03,1.69-2.12.2-1.16.32-2.3.32-3.46.02-4.62.03-9.25.04-13.87q0-1.95-2-1.94c-.79,0-1.59.05-2.37,0-1.82-.12-2.95.85-3.81,2.3-.08.14-.09.35-.2.43-.35.25-.52.82-1.09.7-.71-.15-.38-.71-.39-1.1-.04-1.73.46-3.4.7-5.09.08-.58.62-.67,1.05-.27,1.23,1.14,2.7,1.27,4.28,1.26,4.75-.05,9.5,0,14.25-.05,1.49-.02,2.97-.24,4.34-.95,1.17-.6,1.42-.45,1.3.79-.32,3.4-.22,6.8-.27,10.21-.01.86.12,1.05.94.53,1.38-.87,2.86-1.43,4.59-1.34,2.45.12,4.21,1.96,4.27,4.42.07,2.81.33,5.62.49,8.42.06.93.75,1.19,1.47,1.46.29.11.72.2.69.61-.03.46-.5.59-.84.59-1.91.04-3.83.04-5.75.01-.36,0-.78-.16-.85-.58-.08-.47.34-.63.68-.76,1-.4,1.3-1.14,1.27-2.18-.06-2.08-.01-4.16-.05-6.25-.03-1.45-.71-2.6-2.03-3.17-1.32-.57-2.67-.45-3.89.46-.65.49-.97,1.1-.97,1.9,0,2.37,0,4.75.02,7.12,0,.98.3,1.8,1.32,2.17.35.13.79.32.69.74-.1.43-.55.56-1.01.57-1.91.03-3.82.12-5.72.1-.43,0-1.09-.1-1.23-.64-.09-.35.35-.73.67-.79,1.69-.3,1.82-1.66,1.93-2.91.49-5.53.22-11.07.2-16.6,0-1.17-.46-1.61-1.79-1.72-1.98-.16-3.94-.45-5.94-.44-1.06,0-1.46.35-1.43,1.46.07,2.83.02,5.66.02,8.5Z"/>
  <path class="cls-3" d="m433.79,80.52c-1.71,0-3.41,0-5.12,0-.6,0-1.31-.08-1.35-.78-.04-.69.65-.69,1.2-.77,1.64-.24,2.03-.64,2.32-2.23,0-.04.03-.08.03-.12-.07-5.23.6-10.45.21-15.68-.02-.29-.07-.58-.09-.87q-.13-2.22-2.32-2.83c-.45-.13-.97-.27-.91-.84.06-.6.66-.59,1.09-.59,2.12-.05,4.27.14,6.36-.13,1.95-.26,3.79-.11,5.66.3,2.24.49,3.81,1.87,4.27,4.07.48,2.27.19,4.52-1.99,6-.83.57-.57.79.16,1.21,3.77,2.19,4.92,6.32,2.58,9.65-1.72,2.44-4.35,3.4-7.23,3.6-1.62.11-3.24.02-4.87.02Zm.76-7.86s-.03,0-.04,0c0,.96-.03,1.91,0,2.87.07,2.16,2.4,3.9,4.51,3.42,2.92-.67,4.92-4.61,3.7-7.35-1.22-2.73-4.28-3.85-7.08-3.43-.84.13-1.11.6-1.1,1.37.01,1.04,0,2.08,0,3.12Zm-.02-10.51s-.01,0-.02,0c0,1.12,0,2.25,0,3.37,0,.69.31,1,1,.95,1.2-.09,2.36-.38,3.52-.7.85-.23,1.46-.76,1.94-1.48,1.03-1.55,1.08-3.63.1-5.05-1.04-1.51-3.38-2.52-5.03-2.17-.92.19-1.49.7-1.5,1.7,0,1.12,0,2.25,0,3.37Z"/>
  <path class="cls-3" d="m262.83,73.96c.55-4.89.31-9.56-.11-14.24-.13-1.41-1.05-1.97-2.16-2.46-.43-.19-1.13-.31-1.02-.92.12-.63.82-.6,1.35-.6,2.08,0,4.16.01,6.25.02.37,0,.85-.05.97.38.14.48-.26.74-.67.9-.27.11-.54.21-.81.32-1.05.41-1.54,1.19-1.61,2.3-.4,6.56-.63,13.13-.51,19.7,0,.51.26,1.23-.36,1.46-.61.23-1.07-.3-1.44-.76-1.94-2.34-3.85-4.7-5.81-7.03-1.28-1.51-2.63-2.96-3.94-4.44-1.91-2.17-3.84-4.32-5.58-6.63-.22-.29-.4-.75-.83-.65-.52.12-.26.62-.28.95-.34,4.48-.2,8.97-.26,13.46-.02,1.68.42,2.93,2.21,3.4.42.11.98.35.94.86-.05.61-.68.51-1.11.51-2.17,0-4.33,0-6.5-.02-.46,0-1,.02-1.03-.62-.02-.49.37-.76.8-.81,1.89-.25,2.31-1.6,2.4-3.18.18-3.09.23-6.2.54-9.28.21-2.04.12-4.03-.01-6.05-.12-1.85-.73-2.83-2.52-3.25-.66-.15-1.54-.26-1.47-.97.05-.51,1-.57,1.63-.59.08,0,.17,0,.25,0,5.62.07,3.98-.71,8.85,4.95,3.5,4.06,7.06,8.06,10.61,12.08.35.4.76.74,1.23,1.18Z"/>
  <path class="cls-3" d="m329.36,64.72c2.33.03,4.25.82,6.29.91.61.03,1.23.08,1.85.1.45.02.89.07.93.6.03.43-.17.81-.62.98-.23.08-.47.16-.71.19-1.85.19-1.9.19-1.83,1.97.18,4.64-2.75,6.03-6.28,6.55-.44.06-.9.13-1.33.05-.46-.08-.8-.1-1.03.39-.24.52-.15.96.26,1.35.7.67,1.57.89,2.5.91,1.16.03,2.33,0,3.5.02,1.39,0,2.59.59,3.66,1.39,1.27.96,1.69,2.78,1.17,4.42-1.02,3.25-3.2,5.37-6.51,6.03-2.85.56-5.72.67-7.95-1.89-1.49-1.71-1.36-3.98.44-5.34.23-.17.42-.41.64-.59q1.31-1.07-.03-2.07c-1.47-1.1-1.46-3.08.02-4.12.27-.19.53-.4.83-.53.71-.3.61-.64.13-1.09-.93-.89-1.71-1.86-2.09-3.15-.98-3.36,1.57-5.96,4.11-6.76.75-.24,1.53-.39,2.04-.32Zm.23,17.28c-.54,0-1.08-.05-1.62,0-2.14.24-3.46,3.17-2.08,5.05,1.91,2.59,6.62,2.59,8.56-.13.98-1.38.67-3.1-.75-4.07-1.26-.87-2.69-.86-4.13-.85Zm-3.11-11.65c-.1,1.06.34,2.2,1.18,3.18,1.37,1.6,3.52,1.26,4.26-.7.7-1.86.43-3.69-.53-5.39-.76-1.35-2.2-1.6-3.51-.75-1.26.82-1.36,2.09-1.4,3.66Z"/>
  <path class="cls-1" d="m197.64,114.93c-3.83.27-7.02-1.13-9.73-3.32-2.54-2.05-3.81-4.93-4.16-8.32-.44-4.27,1.07-7.69,3.98-10.54,1.96-1.92,4.53-2.75,7.23-3.25,3.34-.63,6.53.15,9.74.79.7.14,1.31.42,1.36,1.22.08,1.34.7,2.64.23,4.02-.12.35-.07.8-.49.87-.38.06-.5-.34-.67-.63-.64-1.12-.99-2.4-2.12-3.24-1.46-1.08-3.02-1.74-4.84-1.84-4.49-.24-7.47,1.92-9.39,5.8-.92,1.86-1.09,3.88-1.01,5.91.19,4.29,1.93,7.6,5.82,9.74,4.79,2.64,9.09.94,12-2.88.37-.49.69-1.44,1.31-1.15.79.37.21,1.26.01,1.87-.31.97-.69,1.95-1.21,2.82-.87,1.43-2.49,1.57-3.92,1.86-1.4.28-2.86.44-4.14.26Z"/>
  <path class="cls-1" d="m352.25,107.38c0,1.29-.03,2.58,0,3.87.02.85.17,1.67,1.25,1.88.31.06.67.29.65.66-.02.45-.45.63-.81.64-1.97.04-3.94.02-5.91.03-.34,0-.57-.18-.63-.49-.08-.4.17-.62.53-.7,1.49-.35,1.81-1.49,1.84-2.79.04-2.25.06-4.5.07-6.75,0-1.03-.81-1.68-1.29-2.48-.38-.63-.39-1.02.29-1.31.92-.4,1.84-.84,2.8-1.13.71-.22,1.32-.08,1.18.95-.14,1.04.11,1.27,1.11.66,1.92-1.17,3.95-1.98,6.23-.93,1.5.7,2.13,1.97,2.4,3.51.35,1.94.23,3.89.24,5.84.01,1.82.07,3.59,1.98,4.58.2.1.43.33.35.6-.09.3-.35.41-.67.44-1.9.18-3.8-.13-5.7.15-.24.04-.98-.01-1.09-.59-.07-.37.32-.6.58-.74,1.01-.54,1.17-1.27,1.28-2.42.14-1.42.33-2.84.32-4.28,0-.94-.06-1.89-.23-2.81-.23-1.27-1.08-1.98-2.32-2.32-1.46-.4-2.84-.4-4.03.67-.43.39-.46.96-.46,1.51,0,1.25,0,2.5,0,3.75,0,0,.02,0,.03,0Z"/>
  <path class="cls-3" d="m359.04,66.91c.97-.49,1.77-.9,2.59-1.3,3.67-1.79,7.23.33,7.36,4.4.05,1.54-.01,3.08.02,4.62.04,1.83.1,3.63,1.96,4.76.78.48.25,1.02-.32,1.08-2.11.23-4.24.07-6.36.02-.25,0-.53-.2-.49-.47.04-.26.19-.62.39-.72,1.72-.79,1.77-2.31,1.78-3.87,0-1.78,0-3.55-.21-5.33-.16-1.42-1.08-2.33-2.99-2.8-1.17-.29-3.08.35-3.61,1.2-.22.35-.15.73-.15,1.09,0,2.54.03,5.08-.02,7.62-.02.92.35,1.49,1.14,1.87.32.15.83.22.78.68-.06.55-.63.68-1.04.72-1.08.08-2.16.05-3.25.05-.75,0-1.5-.04-2.25-.05-.34,0-.71-.02-.81-.41-.09-.35.16-.73.42-.84,2.03-.82,1.78-2.69,1.97-4.31.14-1.15,0-2.33.03-3.49.04-1.48-.22-2.86-1.16-4.06-.53-.68-.42-1.19.42-1.52.8-.32,1.57-.71,2.36-1.05,1.12-.48,1.4-.3,1.44.92.01.33,0,.66,0,1.19Z"/>
  <path class="cls-1" d="m217.2,114.69c-4.86-.13-7.94-3.91-7.85-8.08.09-4.2,2.97-7.27,7.9-7.61,4.04-.28,7.92,3.14,8.05,7.25.14,4.54-3.88,9.04-8.1,8.44Zm4.6-7.21c-.02-1.69-.21-3.07-.79-4.37-.63-1.41-2.61-2.74-4.07-2.61-1.62.15-2.79,1.04-3.38,2.58-.29.77-.58,1.56-.72,2.37-.53,2.96.66,6.43,3.59,7.73,1.38.61,2.34.44,3.4-.63,1.46-1.47,1.91-3.33,1.96-5.05Z"/>
  <path class="cls-1" d="m336.24,114.69c-4.39,0-7.73-3.63-7.68-8.5.03-3.7,3.49-7.48,8.73-7.15,4.29.27,7.19,3.22,7.12,7.64-.08,5.06-3.9,8.35-8.16,8.01Zm-4.29-8.26c.01,2.84,1.12,5.14,2.95,6.36,2.3,1.53,4.17.37,5.01-1.26,1.41-2.76,1.69-5.75.08-8.45-1.71-2.88-4.9-3.63-6.82-.76-.81,1.21-1.19,2.63-1.21,4.11Z"/>
  <path class="cls-3" d="m471.33,75.82c.9-2.54,1.79-4.94,2.59-7.38.27-.81.05-1.53-.93-1.84-.37-.12-.86-.33-.72-.86.13-.49.63-.48,1.04-.48,1.37-.01,2.75-.01,4.12-.02.35,0,.67.12.88.36.06.07-.08.44-.22.53-2.35,1.53-2.97,4.16-3.97,6.47-1.69,3.9-2.99,7.97-4.72,11.85-.73,1.64-1,3.47-2.09,4.98-.52.72-1.21.91-1.92.8-.81-.13-1.34-.82-1.64-1.54-.33-.8.59-1.17.82-1.81.04-.12.46-.16.69-.13,1.4.16,2-.73,2.44-1.83.15-.38.19-.82.4-1.16,1.57-2.64,1.05-5.23-.12-7.83-1.06-2.35-2.04-4.73-3.06-7.09-.41-.96-.87-1.87-1.98-2.26-.35-.12-.84-.39-.68-.91.13-.43.58-.39.96-.39,1.66,0,3.33,0,4.99,0,.43,0,.92.02,1.07.47.16.51-.36.71-.7.86-.86.37-.91.91-.59,1.71.82,2.04,1.57,4.11,2.37,6.16.18.45.29.96.97,1.37Z"/>
  <path class="cls-3" d="m345.87,64.99c2.3,0,3.49,1.36,3.68,3.82.2,2.62.1,5.22.21,7.83.06,1.39.48,1.68,1.93,1.41.41-.08.94-.25,1.19.07.37.46-.18.84-.42,1.18-1.17,1.68-3.44,1.95-4.93.6-.66-.61-1.24-.8-2.05-.17-.75.58-1.72.85-2.65,1.01-1.85.32-2.78-.3-3.4-2.08-.62-1.78-.1-3.3,1.36-4.18,1.23-.74,2.65-.92,3.95-1.44.97-.39,2.17-.68,2.16-1.9,0-1.26.21-2.74-1.46-3.49-.48-.21-.85-.61-1.48-.64-.97-.06-1.47.2-1.48,1.27,0,.8-2.24,2.19-3.04,1.96-.74-.21-.47-.78-.33-1.22.3-.97,1.17-1.5,1.88-2.09,1.33-1.13,2.81-2.02,4.88-1.93Zm.85,10.84c-.26-.44.55-1.31-.48-1.58-.97-.26-2.88.57-3.42,1.41-.65,1.01-.43,1.95.59,2.51,1.66.91,3.31-.2,3.32-2.33Z"/>
  <path class="cls-3" d="m318.27,72.71c0,1.25-.03,2.5,0,3.74.05,1.67.31,1.85,1.9,1.58.32-.05.67-.08.99-.03.36.05.58.17.31.66-.85,1.58-2.84,2.53-4.53,2.05-.27-.08-.63-.22-.73-.43-.61-1.41-1.52-.86-2.44-.44-1.08.49-2.19,1-3.38.96-1.41-.04-2.26-.95-2.64-2.52-.37-1.54.31-2.97,1.56-3.85,1.29-.91,2.85-.83,4.22-1.43,1.65-.73,2.18-1.87,1.65-4.02-.29-1.18-1.67-2.05-3.05-1.97-.53.03-.78.18-.94.75-.37,1.36-1.29,2.15-2.71,2.36-.28.04-.55.23-.79-.07-.24-.3-.22-.63-.03-.93.29-.45.56-.95.95-1.3,1.6-1.47,3.28-2.84,5.63-2.84,2.22,0,3.92,1.61,4,3.86.05,1.29,0,2.58,0,3.87h0Zm-3.03,2.92c-.29-.47.49-1.58-.56-1.54-1.35.05-2.68.55-3.62,1.65-.35.41-.38.86-.1,1.37.54,1,1.48,1.37,2.88,1.09,1.5-.29,1.27-1.49,1.41-2.57Z"/>
  <path class="cls-3" d="m454.22,67.05c-1.07-.24-1.52.16-1.55,1.28-.02.83-2.07,2.07-2.91,1.88-.46-.1-.63-.39-.46-.83.23-.59.53-1.13.98-1.58,1.28-1.31,2.81-2.28,4.57-2.7,3.21-.77,5.19,1.4,5.22,4.64.02,2.28-.02,4.57-.05,6.85-.01,1.45.58,1.84,1.99,1.43.38-.11.81-.44,1.12.06.3.48-.02.89-.33,1.22-1.18,1.25-2.66,1.64-4.32,1.39-.3-.05-.63-.16-.78-.53-.38-.98-1.25-.86-1.86-.53-1.01.54-2.08.79-3.16,1.04-1.8.42-3.87-1.77-3.38-3.57.43-1.57,1.26-2.76,2.99-3.17,1.13-.27,2.21-.72,3.31-1.09.99-.33,1.52-.94,1.39-2.05-.11-.96.26-2-.6-2.83-.62-.61-1.2-1.17-2.16-.92Zm2.74,8.8c0-.37-.01-.75,0-1.12.02-.55-.24-.81-.76-.64-.91.28-1.83.55-2.69.96-.68.32-1.02,1.02-.94,1.76.07.64.5,1.16,1.14,1.37,1.83.62,3.25-.41,3.24-2.33Z"/>
  <path class="cls-3" d="m278.77,72.58c0,1.37-.06,2.75.02,4.12.08,1.36.51,1.6,1.86,1.35.42-.08,1.01-.55,1.31.14.23.53-.15.97-.56,1.28-2.14,1.63-2.98,2.2-5.19.13-.5-.47-.92-.46-1.42-.05-1.06.89-2.49.83-3.69,1.39-.55.26-2.27-1.19-2.59-2.05-.63-1.72-.35-3.84,2.33-4.86,1.01-.38,2.07-.62,3.08-1,.84-.32,2.01-.31,2.05-1.63.05-1.59.17-3.22-1.55-4.16-.44-.24-.89-.42-1.42-.38-.84.06-1.38.36-1.48,1.3-.1.89-1.89,2.11-2.78,1.99-.34-.05-.55-.24-.49-.58.07-.36.18-.73.35-1.06,1.02-1.95,4.99-3.88,7.16-3.51,1.57.27,2.97,2.03,3.01,3.84.03,1.25,0,2.5,0,3.74,0,0-.01,0-.02,0Zm-3.6,1.65c-1.15.07-2.11.33-2.9.96-.71.56-1.04,1.34-.61,2.2.43.86,1.21,1.23,2.18,1.04,1.63-.32,2.15-1.17,2.15-3.31,0-.72-.24-1.01-.82-.9Z"/>
  <path class="cls-3" d="m228.48,70.52c-1.21,0-2.41.04-3.62-.01-.77-.03-1.11.32-1.07,1.01.23,3.31,2.07,6.92,6.37,6.43.78-.09,1.74-.26,2.19-1.12.31-.6.8-.41,1.16-.24.5.25.12.68-.03.96-1.07,1.99-2.66,3.17-5.02,3.22-3.74.08-6.31-1.55-7.21-5.15-1.15-4.56.67-9.5,5.48-10.24,3.39-.52,4.75-.49,6.4,2.18.46.75.64,1.59.26,2.37-.38.77-1.21.59-1.9.59-1,.01-2,0-2.99,0h0Zm-1.34-1.54h0c.41,0,.83.01,1.24,0,.75-.02,1.59.04,1.6-1.06.01-1-.63-1.51-1.53-1.63-1.42-.19-2.59.32-3.45,1.5-.19.26-.49.52-.34.87.16.37.54.31.87.31.54,0,1.07,0,1.61,0Z"/>
  <path class="cls-3" d="m392.3,70.48c-1.08,0-2.17.06-3.24-.02-1.11-.08-1.48.46-1.55,1.44-.24,3.65,3.75,6.97,7.28,6.03.62-.17,1.07-.62,1.48-1.1.2-.22.46-.44.76-.29.38.18.27.59.2.88-.31,1.22-1.23,2-2.25,2.53-3.55,1.83-8.56.88-9.89-4.1-.8-3-.51-5.84,1.6-8.32,1.64-1.93,5.25-2.99,7.65-2.21,1.68.54,2.99,2.35,2.92,3.94-.03.84-.44,1.22-1.23,1.24-1.25.02-2.5,0-3.74,0,0,0,0-.02,0-.03Zm-1.48-1.5v-.03c.54,0,1.08.05,1.61-.01.67-.08,1.46-.26,1.47-1.06.01-.79-.56-1.39-1.37-1.56-.95-.19-1.89-.13-2.72.5-.61.46-1.61.85-1.39,1.67.2.72,1.22.41,1.9.48.16.02.33,0,.5,0Z"/>
  <path class="cls-3" d="m400.94,75.37c.08-1.77.13-3.64.26-5.5.08-1.04-.27-1.78-1.2-2.23-1.06-.51-.96-1.03-.11-1.71.97-.78,1.85-1.67,2.82-2.46.97-.78,1.48-.61,1.48.58,0,1.14.51,1.3,1.45,1.22.91-.07,1.83-.02,2.74-.04.74-.01,1.22.21,1.16,1.06-.05.75-.17,1.45-1.14,1.47-1,.02-2,.05-2.99,0-.72-.04-1.1.18-1.13.94-.09,2.11-.36,4.21-.29,6.34.09,2.6,1.36,3.58,3.89,2.99.5-.11,1.17-.74,1.54-.04.33.63-.32,1.15-.75,1.57-2.12,2.11-6.34,1.44-7.47-1.17-.41-.94-.17-1.96-.27-3.03Z"/>
  <path class="cls-1" d="m297.34,114.66c-.21,0-.42,0-.62,0-2.93-.13-2.78-.76-3.18-3.51-.04-.27-.23-.7.25-.84.4-.11.62.22.81.46.4.52.75,1.08,1.14,1.61,1.06,1.39,2.6,1.6,3.74.52.97-.91.83-2.5-.21-3.6-1.15-1.22-2.65-1.96-3.88-3.09-1.48-1.38-1.18-3.02-1.01-4.57.17-1.49,1.48-2.37,2.89-2.54,1.45-.18,2.95-.28,4.43.24,1.01.35,1.45.9,1.25,1.92-.13.68.49,1.74-.44,1.96-.75.18-.96-.91-1.31-1.49-.56-.95-1.3-1.5-2.45-1.53-.9-.03-1.34.52-1.76,1.16-.49.73-.35,1.46.2,2.04.9.95,1.83,1.85,3.06,2.43,1.38.65,2.52,1.66,2.91,3.2.65,2.53-1.2,5.39-4.33,5.66-.5.04-1,0-1.5,0v-.03Z"/>
  <path class="cls-1" d="m306.5,111.53c.09-.41-.2-1.01.2-1.16.59-.22.78.43,1.08.81.46.59.9,1.2,1.42,1.72.89.87,2.39.86,3.13.04.92-1.02.98-2.58.11-3.46-1.03-1.04-2.21-1.91-3.41-2.74-1.53-1.07-2.27-2.52-1.99-4.33.27-1.74,1.45-2.75,3.11-3.23,1.38-.4,2.74-.45,4.11.08,1.22.47,2.14,2.22,1.63,3.4-.19.44-.57.87-1.08.22-.43-.55-.96-1.04-1.28-1.65-.53-1-1.39-1.15-2.29-.98-.75.15-1.31.83-1.49,1.53-.24.91.05,1.82.88,2.4,1.15.8,2.31,1.6,3.5,2.34,1.49.92,2.21,2.25,2.04,3.96-.18,1.81-1.33,2.96-2.88,3.79-1.81.97-3.67.66-5.46.08-1.34-.43-1.24-1.73-1.34-2.83Z"/>
  <path class="cls-3" d="m417.72,80.77c-2.85-.03-4.17-1.22-4.25-3.55-.08-2.49-.07-4.99,0-7.48.03-1.06-.11-1.84-1.23-2.26-.83-.31-.94-.83-.18-1.45,1.07-.86,2.1-1.77,3.15-2.64.25-.21.52-.47.89-.3.36.17.41.53.37.86-.15,1.19.49,1.4,1.49,1.33.87-.06,1.75-.02,2.62.02.69.04,1.37.19,1.4,1.09.03.84-.57,1.21-1.25,1.3-.94.12-1.91.14-2.86.09-1-.05-1.41.27-1.37,1.34.07,2.04.07,4.08-.02,6.11-.12,2.64,1.51,3.41,3.93,2.82.46-.11,1.05-.62,1.38-.17.39.52-.26.98-.57,1.36-1.04,1.27-2.5,1.52-3.5,1.54Z"/>
  <path class="cls-3" d="m378.67,64.94c.54.05,1.07.12,1.61.15,1.29.07,1.79.78,1.74,2.02-.02.41.04.83.11,1.24.06.36.06.72-.29.86-.35.14-.64-.12-.85-.38-.54-.69-.92-1.48-1.58-2.08-.94-.86-1.98-.94-2.79-.19-.8.75-.87,2.27-.11,3.1.91,1,2.12,1.59,3.26,2.28,1.37.83,2.43,1.93,2.72,3.55.32,1.84-.91,3.84-2.75,4.75-1.68.83-3.45.74-5.18.39-1.15-.23-1.86-1.04-1.79-2.32.01-.25-.05-.5-.02-.75.06-.5-.28-1.27.29-1.44.54-.16.82.57,1.14,1,.37.49.7,1.01,1.09,1.48.64.77,1.52,1.08,2.46.85,1.1-.27,1.49-1.24,1.67-2.23.16-.88-.27-1.63-.97-2.14-1.15-.84-2.37-1.59-3.55-2.41-1.83-1.26-2.35-4.86-.72-6.32,1.2-1.08,2.83-1.54,4.53-1.42Z"/>
  <path class="cls-3" d="m303.66,80.13c-.73.53-1.5.37-2.24.38-1.91.02-3.83,0-5.74-.01-.34,0-.74,0-.85-.37-.14-.45.29-.73.59-.82,1.46-.43,1.7-1.61,1.75-2.83.11-2.4.12-4.81-.17-7.2-.1-.77-.65-1.32-1.19-1.83-.74-.69-.47-1.16.32-1.44,1.02-.36,2-.8,2.93-1.36.58-.35.99-.38.98.52,0,.56-.29,1.37.17,1.64.58.33.91-.54,1.37-.84.82-.53,1.68-.91,2.61-1.15.87-.23,1.54.16,2.08.82.57.68-.03,1.19-.33,1.67-.88,1.43-1.29,1.53-2.98.97-.31-.1-.64-.26-.95-.22-.73.09-1.79-.05-1.75,1.06.09,2.78-.21,5.57.19,8.35.15,1.08.65,1.63,1.7,1.78.58.08,1.12.29,1.51.9Z"/>
  <path class="cls-3" d="m287.28,73.57c.12,1.07-.19,2.51.16,3.96.24,1,.78,1.5,1.71,1.7.16.03.34.04.48.12.37.21,1.07.21.96.76-.1.55-.75.38-1.18.38-2.16.02-4.32.02-6.49.02-.41,0-.88.05-.99-.51-.11-.53.43-.63.7-.71,1.48-.44,1.48-1.71,1.53-2.82.1-2.12.06-4.24.03-6.36,0-1.01-.48-1.8-1.21-2.51-.78-.76-.68-1.16.32-1.64.82-.39,1.66-.77,2.47-1.17.36-.18.72-.55,1.12-.18.31.29.43.73.32,1.15-.09.35-.41.76.02,1,.4.22.59-.29.86-.49.99-.72,2.12-1.14,3.28-1.48.63-.18,1.38-.04,1.69.5.32.54.44,1.23-.04,1.93-1.09,1.57-1.13,1.63-2.98,1.08-2.01-.6-2.75-.07-2.77,2.02,0,.96,0,1.91,0,3.24Z"/>
  <path class="cls-1" d="m291.85,114.03c-.41.31-.78.44-1.22.43-2.08-.01-4.15-.03-6.23,0-.37,0-.75-.11-.86-.33-.15-.3.27-.5.47-.72.74-.79,2.02-1.07,2.13-2.43.17-1.99.19-3.97.04-5.96-.11-1.49-.31-2.92-1.62-3.95-.42-.33-.09-.75.38-.91,1.16-.4,2.34-.74,3.45-1.3.61-.31.84.09.84.74-.02,3.41,0,6.81,0,10.22,0,.58-.01,1.17.06,1.74.09.72.34,1.33,1.21,1.52.51.11.98.41,1.34.94Z"/>
  <path class="cls-1" d="m327.21,114.01c-2.66.92-5.12.23-7.52.55-.28.04-.96-.05-1.03-.48-.05-.36.38-.6.79-.8,1.12-.53,1.78-1.38,1.82-2.72.07-2.49-.14-4.96-.24-7.43-.04-.87-.78-1.34-1.31-1.86-.6-.59-.34-.84.2-1.07,1.12-.46,2.26-.9,3.4-1.3.8-.28,1.23.15,1.12,1.04-.47,3.8-.15,7.61-.17,11.42,0,.96.5,1.68,1.46,1.89.53.12.79.53,1.48.77Z"/>
  <path class="cls-1" d="m322.73,94.97c-1.07,0-1.84-.74-1.89-1.82-.05-1.05.77-1.83,1.97-1.86,1-.02,1.85.78,1.84,1.74-.01,1.13-.82,1.94-1.92,1.94Z"/>
  <path class="cls-1" d="m289.46,93.17c0,1.3-.51,1.81-1.78,1.79-1.03-.01-1.88-.82-1.9-1.82-.03-.92.96-1.85,1.95-1.84,1.16,0,1.74.63,1.73,1.87Z"/>
  <path class="cls-2" d="m107.75,133.17c-.24,0-.48-.02-.73-.03-.24-.21-.5-.2-.78-.08-4.87-.12-9.53-1.12-13.92-3.3-1.58-.79-2.92-1.92-4.36-2.89-1.39-.94-2.67-.86-4.01.04-2.69,1.81-5.53,3.38-8.63,4.36-2.33.74-4.72,1.27-7.19,1.51-2.45.24-4.91.38-7.31.12-4.73-.5-9.44-1.27-13.28-4.47-1.23-1.02-2.73-1.21-4.23-1.47-2.43-.42-4.93.01-7.32-.72-3.11-.95-6.27-1.73-9.18-3.25-.66-.35-1.31-.72-1.93-1.14-.19-.13-.63-.21-.45-.61.12-.26.41-.2.65-.25,2.41-.47,4.85-.76,7.18-1.61,3.72-1.35,7.16-3.23,10.43-5.43,1.57-1.06,2.36-1.14,3.51.33,2.13,2.73,4.93,4.62,7.81,6.34,1.59.95,3.51,1.45,5.35,1.8,1.67.32,3.39.61,5.12.54,7.9-.29,14.29-3.55,19.1-9.83.62-.81,1.04-1.78,1.6-2.64.51-.79,1-.75,1.46.09,1.92,3.56,4.79,6.18,8.09,8.47,2.86,1.99,6.18,2.57,9.35,3.64.51.17,1.15-.12,1.67.24.27-.02.53-.05.8-.07.97.08,1.95.12,2.92,0,.12.11.22.08.3-.05,6.44-1.1,12.01-3.76,16.18-8.98,1.16-1.45,1.17-1.38,2.72-.4,1.87,1.18,3.43,2.79,5.41,3.82,3.82,1.98,7.93,2.97,12.12,3.72.36.06.71.18,1.07.26.36.08.93-.21.96.46.03.55-.52.61-.87.76-2.11.88-4.14,1.94-6.37,2.57-3.86,1.09-7.72,2.09-11.77,2.25-1.57.06-3.09.43-4.49,1.33-4.4,2.83-9.29,4.14-14.49,4.42-.35-.07-.69-.11-.99.14-.41.01-.82.02-1.23.04-.08-.11-.17-.13-.27-.01Z"/>
  <path class="cls-3" d="m109.25,133.15c.3-.26.64-.21.99-.14-.31.2-.64.25-.99.14Z"/>
  <path class="cls-3" d="m106.55,122.87c-.27.02-.53.05-.8.07.24-.35.52-.25.8-.07Z"/>
  <path class="cls-3" d="m106.25,133.06c.28-.12.54-.12.78.08-.28.11-.54.11-.78-.08Z"/>
  <path class="cls-3" d="m109.78,122.82c-.08.13-.18.15-.3.05.1-.02.2-.03.3-.05Z"/>
  <path class="cls-3" d="m107.75,133.17c.09-.12.18-.1.27.01-.09,0-.18,0-.27-.01Z"/>
  <path class="cls-2" d="m434.56,72.66c0-1.04,0-2.08,0-3.12,0-.77.26-1.25,1.1-1.37,2.8-.42,5.86.69,7.08,3.43,1.22,2.73-.78,6.67-3.7,7.35-2.12.49-4.44-1.26-4.51-3.42-.03-.95,0-1.91,0-2.87.01,0,.03,0,.04,0Z"/>
  <path class="cls-2" d="m434.54,62.16c0-1.12,0-2.25,0-3.37,0-1,.57-1.51,1.5-1.7,1.65-.35,3.99.66,5.03,2.17.98,1.41.93,3.5-.1,5.05-.48.72-1.09,1.25-1.94,1.48-1.16.31-2.32.6-3.52.7-.68.05-1-.26-1-.95.01-1.12,0-2.25,0-3.37,0,0,.01,0,.02,0Z"/>
  <path class="cls-2" d="m329.59,82c1.43-.01,2.86-.01,4.13.85,1.41.97,1.73,2.69.75,4.07-1.94,2.72-6.65,2.73-8.56.13-1.38-1.88-.07-4.81,2.08-5.05.53-.06,1.08,0,1.62,0Z"/>
  <path class="cls-2" d="m326.48,70.35c.04-1.57.14-2.84,1.4-3.66,1.32-.86,2.75-.61,3.51.75.96,1.7,1.23,3.53.53,5.39-.74,1.97-2.88,2.3-4.26.7-.84-.98-1.28-2.12-1.18-3.18Z"/>
  <path class="cls-2" d="m221.81,107.48c-.06,1.72-.51,3.58-1.96,5.05-1.07,1.08-2.02,1.24-3.4.63-2.93-1.29-4.12-4.76-3.59-7.73.14-.81.43-1.6.72-2.37.59-1.54,1.75-2.43,3.38-2.58,1.46-.13,3.43,1.21,4.07,2.61.59,1.3.78,2.68.79,4.37Z"/>
  <path class="cls-2" d="m331.96,106.43c.03-1.48.41-2.9,1.21-4.11,1.92-2.87,5.1-2.12,6.82.76,1.61,2.7,1.34,5.69-.08,8.45-.84,1.63-2.71,2.8-5.01,1.26-1.83-1.22-2.94-3.52-2.95-6.36Z"/>
  <path class="cls-2" d="m346.72,75.83c-.01,2.13-1.66,3.24-3.32,2.33-1.02-.56-1.24-1.5-.59-2.51.55-.84,2.45-1.67,3.42-1.41,1.02.28.22,1.15.48,1.58Z"/>
  <path class="cls-2" d="m315.23,75.63c-.14,1.08.09,2.28-1.41,2.57-1.4.27-2.34-.09-2.88-1.09-.27-.51-.25-.97.1-1.37.95-1.1,2.28-1.6,3.62-1.65,1.06-.04.27,1.06.56,1.54Z"/>
  <path class="cls-2" d="m456.96,75.85c0,1.92-1.41,2.95-3.24,2.33-.64-.22-1.07-.73-1.14-1.37-.08-.74.25-1.44.94-1.76.86-.4,1.78-.68,2.69-.96.52-.16.78.09.76.64-.02.37,0,.75,0,1.12Z"/>
  <path class="cls-2" d="m275.16,74.23c.57-.11.82.18.82.9,0,2.13-.52,2.98-2.15,3.31-.97.19-1.75-.17-2.18-1.04-.43-.86-.1-1.64.61-2.2.8-.63,1.76-.89,2.9-.96Z"/>
  <path class="cls-2" d="m227.14,68.98c-.54,0-1.07,0-1.61,0-.33,0-.71.06-.87-.31-.15-.36.15-.62.34-.87.85-1.17,2.03-1.68,3.45-1.5.9.12,1.54.62,1.53,1.63-.01,1.1-.85,1.04-1.6,1.06-.41,0-.83,0-1.24,0h0Z"/>
  <path class="cls-2" d="m390.81,68.98c-.17,0-.33.02-.5,0-.68-.08-1.7.23-1.9-.48-.23-.82.77-1.21,1.39-1.67.83-.63,1.77-.69,2.72-.5.81.16,1.38.77,1.37,1.56-.01.8-.8.98-1.47,1.06-.53.06-1.07.01-1.61.01v.03Z"/>
</svg>