<?xml version="1.0" encoding="UTF-8"?>
<svg id="layer" xmlns="http://www.w3.org/2000/svg" version="1.1" viewBox="0 0 599.9 263.7">
  <!-- Generator: Adobe Illustrator 29.4.0, SVG Export Plug-In . SVG Version: 2.1.0 Build 152)  -->
  <defs>
    <style>
      .st0, .st1, .st2, .st3 {
        fill-rule: evenodd;
      }

      .st0, .st4 {
        fill: #164777;
      }

      .st1, .st5 {
        fill: #fff;
      }

      .st2, .st6 {
        fill: #008743;
      }

      .st3 {
        fill: #0091d1;
      }
    </style>
  </defs>
  <path class="st4" d="M220.4.1h35.9c23.2,0,38.9,1.1,47.1,3.4,8.2,2.3,14.4,6,18.7,11.2,4.3,5.2,6.9,11,8,17.3,1.1,6.4,1.6,18.9,1.6,37.5v68.9c0,17.7-.8,29.5-2.3,35.4-1.6,6-4.3,10.6-8.2,14-3.9,3.4-8.7,5.7-14.4,7-5.7,1.3-14.3,2-25.8,2h-60.6V.1h0ZM268.5,33.8v129.4c6.9,0,11.2-1.5,12.8-4.4,1.6-3,2.4-11,2.4-24.1V58.3c0-8.9-.3-14.6-.8-17.1s-1.8-4.4-3.7-5.5c-1.9-1.4-5.5-1.9-10.7-1.9"/>
  <polygon class="st4" points="349.6 .1 429.7 .1 429.7 39.5 397.6 39.5 397.6 76.8 427.6 76.8 427.6 114.2 397.6 114.2 397.6 157.4 432.9 157.4 432.9 196.8 349.6 196.8 349.6 .1"/>
  <path class="st4" d="M594.9.1v196.7h-42l-.1-132.8-16.7,132.8h-29.8l-17.6-129.8-.1,129.8h-42V.1h62.2c1.8,11.8,3.7,25.8,5.7,41.8l6.8,50L532.3,0h62.6v.1Z"/>
  <path class="st4" d="M245.9,244h-4.8l-6.8-15.9h-10.5v15.9h-4.3v-36.7h14.5c3.9,0,6.8,1.1,8.7,3.2,1.9,2.1,2.8,4.5,2.8,7,0,2-.5,3.8-1.6,5.6-1.1,1.8-2.8,3.1-5.2,3.8l7.2,17.1ZM223.7,224.4h9.6c2.5,0,4.4-.7,5.7-2,1.2-1.3,1.9-3,1.9-4.9s-.7-3.4-2-4.5-3-1.6-5-1.6h-10.2v13h0Z"/>
  <polygon class="st4" points="282.2 244 277.6 244 277.6 226.5 260.6 226.5 260.6 244 256 244 256 207.3 260.6 207.3 260.6 222.5 277.6 222.5 277.6 207.3 282.2 207.3 282.2 244"/>
  <path class="st4" d="M306.8,244.8c-4.7,0-8.4-1.8-11-5.5s-4-8.2-4-13.5c0-5.6,1.4-10.2,4.1-13.8,2.8-3.6,6.4-5.4,11-5.4s8.2,1.8,10.9,5.3c2.7,3.6,4.1,8.1,4.1,13.5s-1.3,9.7-4,13.6c-2.6,3.9-6.3,5.8-11.1,5.8M306.9,241.1c3.2,0,5.7-1.5,7.5-4.4s2.7-6.7,2.7-11.3-.9-8.4-2.8-11.1c-1.9-2.6-4.4-4-7.5-4s-5.6,1.4-7.5,4.3c-1.8,2.9-2.8,6.6-2.8,11.2s.9,8.2,2.8,11c2,2.8,4.5,4.3,7.6,4.3"/>
  <path class="st4" d="M331.7,244v-36.7h12.3c5.2,0,9.2,1.8,12.1,5.3s4.3,7.9,4.3,13-1.4,9.6-4.2,13.1c-2.8,3.6-6.4,5.3-10.7,5.3h-13.8ZM336.3,240.1h7.4c4,0,7-1.4,9-4.1s3.1-6.3,3.1-10.8c0-3.6-1-6.9-2.9-9.8s-5-4.3-9.1-4.3h-7.4v29h-.1Z"/>
  <polygon class="st4" points="393.8 240 393.8 244 370.1 244 370.1 207.3 393.3 207.3 393.3 211.3 374.7 211.3 374.7 223 389.5 223 389.5 226.8 374.7 226.8 374.7 240 393.8 240"/>
  <rect class="st4" x="419.6" y="207.3" width="4.6" height="36.7"/>
  <path class="st4" d="M432.1,234.3l4.1-.9c1.7,5,5.3,7.5,10.8,7.5,2.9,0,5.1-.6,6.6-1.9,1.5-1.2,2.2-2.9,2.2-5,0-1.6-.6-2.8-1.7-3.8s-2.4-1.6-3.9-2l-7.3-1.8c-1.9-.5-3.5-1.1-4.7-1.8-1.2-.7-2.2-1.8-3.1-3.2-.8-1.4-1.3-3.1-1.3-4.9,0-3.1,1.2-5.5,3.5-7.3s5.3-2.7,8.9-2.7c6.7,0,11.1,3,13.2,9.1l-4.2,1.2c-.5-2.2-1.6-3.8-3.4-4.9s-3.7-1.7-5.7-1.7-3.8.5-5.4,1.6-2.4,2.6-2.4,4.5c0,2.7,2,4.6,6,5.5l6.9,1.6c6.3,1.5,9.4,4.9,9.4,10.1,0,3.2-1.2,5.8-3.5,7.9-2.4,2.1-5.7,3.2-10,3.2-7.6.2-12.6-3.3-15-10.3"/>
  <polygon class="st4" points="491.9 240 491.9 244 470.2 244 470.2 207.3 474.9 207.3 474.9 240 491.9 240"/>
  <path class="st4" d="M524.7,244h-4.7l-3.7-10.7h-13.6l-3.3,10.7h-3.8l11.9-36.7h5.2l12,36.7ZM515.3,229.9l-5.7-17.7-5.7,17.7h11.4Z"/>
  <path class="st4" d="M559.3,244h-4.5l-19-32,.1,2.4c.1.9.1,1.7.1,2.3v27.3h-3.7v-36.7h5.8l17.8,29.9-.1-2.6v-27.3h3.6v36.7h-.1Z"/>
  <path class="st4" d="M571.2,244v-36.7h12.3c5.2,0,9.2,1.8,12.1,5.3,2.9,3.5,4.3,7.9,4.3,13s-1.4,9.6-4.2,13.1c-2.8,3.6-6.4,5.3-10.7,5.3h-13.8ZM575.8,240.1h7.4c4,0,7-1.4,9-4.1s3.1-6.3,3.1-10.8c0-3.6-1-6.9-2.9-9.8s-5-4.3-9.1-4.3h-7.4v29h-.1Z"/>
  <path class="st2" d="M0,.1v200.4c0,17.5,17.4,63.2,93.5,63.2s93.5-45.7,93.5-63.2V.1H0Z"/>
  <path class="st1" d="M4,4.1v194.1c0,16.7,16.7,60.5,89.5,60.5s89.5-43.8,89.5-60.5V4.1H4Z"/>
  <path class="st3" d="M8.7,8.9s.2,170,0,185.9c-.3,17.3,15.8,58.8,84.8,58.8s84.8-40.9,84.8-58.8V8.9H8.7Z"/>
  <path class="st5" d="M30.6,8.4l19.1,20.8s3,24.8,7.6,32c1.2,1.9-1.8,1.8-4.4,4.9-3.9,4.7-5.6,8-20.5,7.8-5-.1,1.7.4,2.4,2.1s.4,2.1,1.5,2.9c1.6,1.1,6.3.2,8,1.5,1.7,1.2,1.9,1.1,2.6,1.6s3-4,7-5,8.9-.2,26.3-19.1c3.9-4.2,2.7-5.2,4.5-5.2,1.7,0,2.8-.1,3.7-1.1.8-.8,1.4-1.6,2-1.6,1.7-.1,6.6-.7,6.6-.7,0,0-.7-2.4-5.9-2.3-3,0-1-3-6.1-2.6-7.5.5-8.3,6.8-12.9,3.8-5.8-3.7-1.8-13.6-3.8-17.6s-7.5-9.5-7.2-12.2c.1-1.2-7.7-7.2-11.2-9.2-3.4-1.8-19.3-.8-19.3-.8"/>
  <path class="st5" d="M55.6,60.9s-4.7-6.7-4.7-9.2c0-3.5-1.2-6.4-1.2-6.4,0,0-4.1-2.1-7.9-1.6-3.8.4-15.4,4.9-20.8,3.1-5.4-1.8,2.6,3.9,17.1,3.9,6.3,0,9.4,5.8,11.9,7.3,2.5,1.6,4,5.6,4,5.6,0,0,2.7-1.8,1.6-2.7"/>
  <path class="st5" d="M133,14.7l13.3,16.7s.1,12.6,1.7,16.9c.4,1.1-1.9,2.7-3.3,4.3-2.1,2.5-5.1,3.7-10.8,4.7-2.7.5.9.2,1.3,1.1.4.9.2,1.1.8,1.5.9.6,3.4.1,4.4.8s1,.6,1.5.9c.4.3,3.9-4.6,6.1-5.1,2.2-.5,7.1.1,13.1-6.9,2-2.4.6-3.5,1.6-3.5s1.5-.1,2-.6c.4-.4.7-.9,1.1-.9,1,0,3.7-.4,3.7-.4,0,0-.4-1.3-3.3-1.2-1.6,0-.5-1.6-3.3-1.4-4.1.3-3.8,3.5-6.1,1.6-1.7-1.4.8-8.7-.3-10.8s-2-4.5-1.9-5.9c.1-.7-9.5-7-11.4-8.1-1.9-1-10.2-3.7-10.2-3.7"/>
  <path class="st5" d="M145.9,49.6s-.7-5.3-.7-6.6c0-1.9-.6-3.6-.6-3.6,0,0-2.4-1.5-4.5-1.3s-10.5.7-13.4-.3c-3-.9,1.5,4.6,9.5,4.6,3.5,0,4.8,2.6,6.2,3.5,1.4.8,2.2,3.9,2.2,3.9,0,0,2,.3,1.3-.2"/>
  <path class="st5" d="M113.8,41.2s-11.8,19.8-16.3,26.1c-4.5,6.3-6.5,23.1-4.1,25.8,1.5,1.7-21.6-1.3-28.7-1.6-7.1-.3-12.2-1.9-12.2-1.9,0,0,6.9,11.8,10.2,21,3.3,9.2,12.7,33.8,32.5,28.7,3.8-1,6.5-2.3,6.2-3.8s1.3,1.8,3.8,2.8c.5.2.4,17.6.4,17.6l16.4,1.5-.1-19.2s1.5-1.8,3.3-1.8,6.5,5.3,14.5,3.2c8-2.1,21.4-9.8,27.9-34.2,1.8-6.9,6.2-14.7,7.4-15.3,1.2-.6-14.9,2.3-23.6,2-8.6-.3-14.6,0-15.8.9-3.8,3.2,4.9-4.6-6.5-24.4-10-17.3-14.7-25.3-15.3-27.4"/>
  <rect class="st6" x="110.4" y="63.9" width="5.8" height="89.9"/>
  <path class="st6" d="M61.1,96.1s4.9,8.7,6.7,13.9c1.9,5.1,10.4,27.3,25.4,23,15.6-4.5,13.5-15.2,13.7-18.9.2-3.6-5.7-15.5-21.9-16.2-12.9-.6-9.4-.6-18.4-.9-2.8-.1-5.5-.9-5.5-.9"/>
  <path class="st5" d="M73.8,107.8l22.6,16.7s-7.5,6.2-15.4-2.4c-7.9-8.5-6.6-14-7.2-14.3"/>
  <path class="st5" d="M78,104.1l22,15.9s3.4-8.8-6.8-13.5c-10.2-4.6-14.8-1.9-15.2-2.4"/>
  <polygon class="st6" points="100.4 127.1 111.5 135.7 111.4 128.1 103.7 122.5 100.4 127.1"/>
  <path class="st6" d="M165.4,96.1s-4.9,8.7-6.7,13.9c-1.9,5.1-10.4,27.3-25.4,23-15.6-4.5-13.5-15.2-13.7-18.9-.2-3.6,5.7-15.5,21.9-16.2,12.9-.6,9.4-.6,18.4-.9,2.8-.1,5.5-.9,5.5-.9"/>
  <path class="st5" d="M152.8,107.8l-22.6,16.7s7.5,6.2,15.4-2.4c7.8-8.5,6.6-14,7.2-14.3"/>
  <path class="st5" d="M148.6,104.1l-22,15.9s-3.4-8.8,6.8-13.5c10.1-4.6,14.7-1.9,15.2-2.4"/>
  <polygon class="st6" points="126.2 127.1 115.1 135.7 115.2 128.1 122.8 122.5 126.2 127.1"/>
  <path class="st6" d="M114,50.9s4.2,9.1,7.1,13.6c3,4.5,15.7,24.4,3.7,34-12.5,10-19.8,2-22.8.1s-9-13.7-.4-27.2c6.9-10.8,4.9-8,9.8-15.4,1.7-2.4,2.6-5.1,2.6-5.1"/>
  <path class="st5" d="M116.1,68l.4,28.1s9.2-2.4,6.9-13.9c-2.4-11.3-7.5-13.5-7.3-14.2"/>
  <path class="st5" d="M110.7,69.3l.1,27.2s-8.9-2.3-6.8-13.4c2-11,6.9-13.2,6.7-13.8"/>
  <path class="st0" d="M8.7,160s.2,18.9,0,34.7c-.3,17.3,15.8,58.8,84.8,58.8s84.8-40.9,84.8-58.8v-34.7H8.7Z"/>
  <path class="st5" d="M53.5,210.4s-5.7-.4-5.8-2.1c-.1-1.8-2.6,2,4.3,5.4s14.8,9,17.2,8.9,2.1-.6,3.1.5,3.8,5.2,5.4,5.5c1.6.4,1.8-.3,2.6.6.9.9,1.5,2.1,4.1,2s4.4-1.8,2.1-5.7c-2.3-3.9-.9-1.9,2.5-1.9s8.5-.9,11.2-.2c2.6.6,3.1,4.3,9.3,4s9.5-.9,9-5.1c-.5-4.3-4.1-2.1-3.8-3.7.4-1.5,7.7-2.6,9.3-3.1s9.6,7.9,15.2,7.3c5.7-.6,3.6-5.5,2.9-6.8-.8-1.3-2.3-2.6-1.6-4.3.6-1.6,2.4-5.4,2.1-7.9-.3-2.5-.5-4.3-7.5-2.3s-5,4.5-9.6,3.6c-4.5-.9-12.1-3.1-11.6-4.4s4.3,0,4.6-1.6c.4-1.6.9-5.2-3.8-7.8-4.7-2.6-3.3-3.1-9.9-2.5-4.9.5-6.5,2.8-9,3-2.5.3-1.6-1.4-2-1.8s-1.9.1-2.4,0-.5-1.8-.5-1.8c0,0-1.4.6-2.1.4-.8-.3.1-1.5-.4-1.5s-.9,1.5-2.1,1c-1.3-.5-.6-1.1-.9-1.6s-1.9.9-2.5.9-.3-1.1-.8-1.4-.2,1.3-1.8,2.4c-1.5,1.1-2,.3-2-.3,0-.5.1,2.5-2.6,3.6-2.8,1.1-6.1,4.8-12.6,7.2-6.4,2.4-14.3,4.3-13.9,6.2.4,1.9,3.4,2.5,3.9,3.8.8,1.3,1,.8.4,1.5"/>
  <path class="st5" d="M7.3,153.3h171.3v9.7s-4.5,5.9-10.8,6.1c-9,.2-5.7-4.5-15.1-4.7-9.4-.2-5.3,4.7-14.5,4.9-9.2.2-7.2-5.6-15.5-5.2-8.3.5-6.1,5.2-13.7,5.2s-8.3-6.1-16.4-5.8c-8.1.2-6.7,6.5-14.6,5.4s-8.5-5.2-15.3-5.2-8.9,5.2-13.9,5.4c-6.7.2-9.4-4.7-13.7-4.9-5.8-.3-9.9,6.1-14.4,5.4s-10.9-2.2-12.7-5.6c-1.8-3.5-.7-10.7-.7-10.7"/>
</svg>